<?xml version="1.0" encoding="UTF-8"?>
<!DOCTYPE svg PUBLIC "-//W3C//DTD SVG 1.1//EN" "http://www.w3.org/Graphics/SVG/1.1/DTD/svg11.dtd">
<!-- Creator: CorelDRAW -->
<svg xmlns="http://www.w3.org/2000/svg" xml:space="preserve" width="11.6929in" height="16.5354in" version="1.1" style="shape-rendering:geometricPrecision; text-rendering:geometricPrecision; image-rendering:optimizeQuality; fill-rule:evenodd; clip-rule:evenodd"
viewBox="0 0 11692.91 16535.43"
 xmlns:xlink="http://www.w3.org/1999/xlink"
 xmlns:xodm="http://www.corel.com/coreldraw/odm/2003">
 <defs>
  <style type="text/css">
   <![CDATA[
    .fil5 {fill:#251A66}
    .fil0 {fill:#EF5F18}
    .fil4 {fill:#EF5F18}
    .fil1 {fill:#251A66;fill-rule:nonzero}
    .fil2 {fill:#EF5F18;fill-rule:nonzero}
    .fil3 {fill:#EF5F18;fill-rule:nonzero}
   ]]>
  </style>
 </defs>
 <g id="Layer_x0020_1">
  <metadata id="CorelCorpID_0Corel-Layer"/>
  <path class="fil0" d="M8352.03 7818.12l2083.22 0c18.56,0 33.75,30.44 33.75,67.56l0 769.21c0,37.12 -15.22,67.56 -33.75,67.56l-1882.8 0 -200.41 -904.33zm560.13 556.3c0,-46.74 -1.8,-93.48 0,-139.31 0.9,-98.87 2.7,-200.43 3.59,-301.1 0,-35.95 -9.89,-45.84 -44.94,-46.73 -76.4,0 -153.7,-0.9 -229.19,-0.9 -34.15,-0.9 -44.94,9.88 -44.04,45.83 1.8,51.23 5.4,103.36 5.4,154.59 0,110.55 -3.6,220.2 -1.8,329.85 0,67.41 3.59,134.82 5.39,202.23 0.9,24.27 10.78,32.35 34.16,34.15 5.39,0 9.88,-1.8 15.28,-1.8 147.4,1.8 293.91,1.8 440.41,1.8 26.96,0 36.85,-8.99 36.85,-35.95 1.8,-55.72 1.8,-110.55 1.8,-166.27 0,-11.69 0,-25.17 -1.8,-38.65 -1.8,-27.86 -11.69,-37.75 -39.54,-37.75 -31.46,0 -62.02,0 -95.28,0 -26.06,0 -53.93,0 -86.28,0zm1321.67 -217.51c40.44,-2.69 77.31,-5.41 113.25,-6.29 35.94,-0.88 44.04,-6.29 47.63,-40.44 3.59,-39.55 4.5,-80 5.39,-121.34 0,-19.78 2.69,-42.24 -0.9,-61.12 -2.7,-28.76 -21.57,-41.34 -51.23,-39.55 -17.08,0.9 -35.06,2.7 -52.13,2.7 -156.39,-1.8 -311.88,-2.7 -468.27,-3.59 -39.55,-0.9 -57.52,13.48 -58.42,53.93 -0.9,56.63 -0.9,114.15 0.9,169.87 1.8,34.15 18.87,51.24 51.23,55.73 26.07,1.8 51.23,0.9 74.6,0.9 20.67,0 38.65,0 58.42,0 0,13.48 0,21.57 0,30.56 0,122.24 0,240.87 0,361.31 0,17.08 -0.9,35.06 0,51.23 0,20.67 8.09,29.66 27.87,35.06 10.78,2.69 20.67,4.49 31.46,4.49 51.23,3.6 102.46,5.39 153.69,5.39 53.03,0 72.8,-18.87 72.8,-72.8 -0.9,-109.65 -4.49,-217.5 -6.29,-327.16 0,-31.46 0,-63.81 0,-98.87zm-788.07 10.79c66.51,-0.9 151.9,-0.9 225.59,-1.8 28.76,-0.9 38.65,-8.09 39.55,-33.26 4.49,-60.22 2.7,-122.23 4.49,-182.45 0,-30.56 -0.9,-62.91 -33.25,-62.91 -138.42,1.8 -301.09,-5.4 -440.41,2.7 -44.04,1.8 -44.94,49.43 -46.74,88.98 0,45.84 0.9,95.27 0.9,142.01 0,157.29 -0.9,315.48 -1.8,472.76 0,10.78 0,20.67 0.9,28.76 1.8,22.47 9.89,28.76 31.46,28.76 30.56,0.9 62.02,1.8 92.57,1.8 27.87,0 55.73,0 82.69,-1.8 31.46,-2.7 36.85,-9.89 37.75,-40.44 0.9,-51.23 0.9,-100.67 -1.8,-159.98 53.03,0 113.25,-0.9 164.48,-2.7 20.67,0 38.65,-9.88 38.65,-30.56 1.8,-44.94 2.7,-87.19 1.8,-133.02 -0.9,-24.26 -13.48,-33.26 -38.65,-34.15 -51.23,-3.59 -104.26,-1.8 -158.19,-2.7 0,-26.06 0,-53.93 0,-79.99z"/>
  <g id="_2556667611088">
   <path class="fil1" d="M8075.39 8560.97c-0.07,-2.18 -0.24,-4.26 -0.49,-6.25l-20.43 -272.54 -4.92 -70.03c-0.86,-12.92 -7.75,-19.38 -20.67,-19.38 -12.06,0 -18.95,6.46 -20.67,19.38l-5.18 73.81 -20.37 271.74c-0.12,1.06 -0.22,2.15 -0.29,3.26l-9.05 122.73c-0.86,25.84 -14.64,38.76 -41.34,38.76l-337.19 0c-25.84,0 -36.17,-12.49 -31,-37.46l174.41 -829.41c5.17,-24.98 20.67,-37.46 46.51,-37.46l488.35 0c25.84,0 41.34,12.49 46.51,37.46l174.41 829.41c5.17,24.98 -5.17,37.46 -31.01,37.46l-337.19 0c-25.84,0 -39.62,-12.92 -41.34,-38.76l-7.5 -101.81 0 0 -0.05 -0.67 -1.49 -20.25z"/>
   <path class="fil1" d="M7449.79 8184.08c-31.87,0 -47.8,15.93 -47.8,47.8l0 451.83c0,25.83 -12.92,38.76 -38.76,38.76l-284.22 0c-25.83,0 -38.76,-12.92 -38.76,-38.76l0 -451.83c0,-31.87 -15.94,-47.8 -47.8,-47.8l-94.31 0c-25.84,0 -38.76,-12.92 -38.76,-38.76l0 -288.44c0,-25.84 12.92,-38.76 38.76,-38.76l645.96 0c25.84,0 38.76,12.92 38.76,38.76l0 288.44c0,25.84 -12.92,38.76 -38.76,38.76l-94.31 0z"/>
   <path class="fil1" d="M6298.37 8683.7c2.59,25.84 -9.04,38.76 -34.88,38.76l-271.31 0c-25.83,0 -38.76,-12.92 -38.76,-38.76l0 -826.83c0,-25.84 12.92,-38.76 38.76,-38.76l205.42 0c12.92,0 24.33,2.8 34.24,8.4 9.91,5.6 19.16,13.13 27.78,22.61l152.44 182.16c6.03,6.89 11.63,12.92 16.8,18.09 5.17,5.17 12.49,7.76 21.96,7.76 10.33,0 17.44,-3.23 21.31,-9.69 3.88,-6.46 5.39,-14 4.52,-22.61l-14.21 -167.95c-2.58,-25.84 9.47,-38.76 36.17,-38.76l271.3 0c25.84,0 38.76,12.92 38.76,38.76l0 826.83c0,25.84 -12.92,38.76 -38.76,38.76l-205.41 0c-24.12,0 -45.22,-9.91 -63.3,-29.71l-149.87 -170.54c-5.17,-6.89 -10.55,-12.7 -16.15,-17.44 -5.6,-4.74 -13.13,-7.1 -22.61,-7.1 -10.33,0 -17.66,3.23 -21.96,9.69 -4.3,6.46 -6.03,14 -5.17,22.61l12.92 153.74z"/>
   <path class="fil1" d="M5495.78 8560.97c-0.08,-2.44 -0.28,-4.77 -0.59,-6.98l-20.33 -271.81 -4.92 -70.03c-0.86,-12.92 -7.75,-19.38 -20.67,-19.38 -12.06,0 -18.95,6.46 -20.67,19.38l-5.18 73.82 -20.33 271.4c-0.14,1.17 -0.25,2.37 -0.33,3.6l-9.04 122.73c-0.86,25.84 -14.64,38.76 -41.34,38.76l-337.19 0c-25.84,0 -36.17,-12.49 -31,-37.46l174.41 -829.41c5.17,-24.98 20.67,-37.46 46.51,-37.46l488.35 0c25.84,0 41.34,12.49 46.51,37.46l174.41 829.41c5.17,24.98 -5.17,37.46 -31.01,37.46l-337.19 0c-25.84,0 -39.62,-12.92 -41.34,-38.76l-4.52 -61.37 -4.52 -61.37z"/>
   <path class="fil1" d="M4508.44 8687.58c-10.34,23.26 -28.42,34.88 -54.26,34.88l-34.88 0c-25.84,0 -43.93,-11.63 -54.26,-34.88l-86.56 -188.62c-3.45,-7.75 -7.76,-14.43 -12.92,-20.02 -5.17,-5.6 -13.78,-8.4 -25.84,-8.4 -8.61,0 -14.43,3.01 -17.44,9.04 -3.02,6.03 -4.09,13.35 -3.23,21.96l15.5 182.16c2.58,25.84 -9.04,38.76 -34.89,38.76l-232.54 0c-25.84,0 -38.76,-12.92 -38.76,-38.76l0 -826.83c0,-25.84 12.92,-38.76 38.76,-38.76l249.34 0c24.11,0 43.49,11.2 58.13,33.59l124.02 191.2c4.31,6.89 9.26,12.7 14.86,17.44 5.6,4.74 13.57,7.11 23.9,7.11 10.33,0 18.3,-2.37 23.9,-7.11 5.59,-4.74 10.55,-10.55 14.85,-17.44l122.73 -191.2c14.64,-22.39 34.02,-33.59 58.14,-33.59l249.34 0c25.84,0 38.76,12.92 38.76,38.76l0 826.83c0,25.84 -12.92,38.76 -38.76,38.76l-232.54 0c-25.84,0 -37.47,-12.92 -34.88,-38.76l15.5 -182.16c0.86,-8.61 0,-15.93 -2.59,-21.96 -2.58,-6.03 -8.61,-9.04 -18.09,-9.04 -11.2,0 -19.59,2.8 -25.19,8.4 -5.6,5.6 -10.12,12.27 -13.56,20.02l-86.56 188.62z"/>
  </g>
  <path class="fil2" d="M4208.05 9043.81c-14.54,-1.91 -26.1,-13.46 -28,-27.94l0 -159.96 -40.75 0 0 155.87c0,11.55 2.73,22.39 7.63,32.03 6.92,14.54 18.58,26.26 33.12,33.28 9.64,4.8 20.54,7.52 32.09,7.52l115.93 0 0 -40.8 -120.02 0zm295.3 40.86l0 -228.72 -40.81 0 0 228.72 40.81 0zm196.36 -228.77c-34.11,0 -61.67,27.73 -61.67,61.83l0 166.87 40.65 0 0 -104.93 147.32 0 0 -40.75 -147.21 0 0 -21.19c0,-11.55 9.37,-21.08 20.92,-21.08l167.04 0 0 -40.76 -167.04 0zm363.46 40.76l167.04 0 0 -40.76 -167.04 0c-34.11,0 -61.68,27.73 -61.68,61.83l0 105.15c0,34.11 27.57,61.83 61.68,61.83l167.04 0 0 -40.75 -167.04 0c-11.55,0 -20.93,-9.54 -20.93,-21.08l0 -43.2 147.21 0 0 -40.75 -147.21 0 0 -21.19c0,-11.55 9.37,-21.08 20.93,-21.08l0 0z"/>
  <path class="fil3" d="M5585.8 8855.96c-34.09,0 -61.66,27.72 -61.66,61.82l0 166.83 40.63 0 0 -104.9 147.28 0 0 -40.74 -147.17 0 0 -21.19c0,-11.55 9.37,-21.08 20.91,-21.08l167 0 0 -40.74 -167 0zm342.5 228.71l0 -228.65 -40.8 0 0 228.65 40.8 0zm134.65 -228.54l0 40.85 93.96 0 0 187.86 40.8 0 0 -187.86 93.9 0 0 -40.85 -228.65 0zm551.28 -0.17l0 145.65 -147.01 -113.29 -40.91 -31.54 0 227.94 40.91 0 0 -144.83 147.01 113.35 40.85 31.48 0 -228.76 -40.85 0zm237.11 40.74l167 0 0 -40.74 -167 0c-34.09,0 -61.66,27.72 -61.66,61.82l0 105.12c0,34.09 27.56,61.82 61.66,61.82l167 0 0 -40.74 -167 0c-11.55,0 -20.91,-9.53 -20.91,-21.08l0 -43.19 147.17 0 0 -40.74 -147.17 0 0 -21.19c0,-11.55 9.37,-21.08 20.91,-21.08l0 0zm518 22.28l0 -1.2c0,-34.1 -27.72,-61.82 -61.82,-61.82l-92.81 0c-34.09,0 -61.66,27.72 -61.66,61.82l0 1.2c0,13.07 4.09,25.17 11,35.08 2.29,3.54 5.01,6.64 8.01,9.48 11,10.78 25.98,17.26 42.65,17.26l82.19 0c17.43,0 31.7,14.16 31.7,31.54 0,17.37 -14.27,31.54 -31.7,31.54l-71.57 0c-17.37,0 -31.54,-14.16 -31.54,-31.54l-40.74 0c0,39.93 32.35,72.28 72.28,72.28l71.57 0c39.98,0 72.44,-32.35 72.44,-72.28 0,-17.27 -6.1,-33.17 -16.29,-45.65 -0.81,-1.09 -1.63,-2.18 -2.72,-3.16 -13.18,-14.49 -32.19,-23.64 -53.43,-23.64l-82.19 0c-11.55,0 -20.91,-9.37 -20.91,-20.92l0 -1.2c0,-11.55 9.37,-20.92 20.91,-20.92l92.81 0c11.54,0 21.08,9.37 21.08,20.92l0 1.2 40.74 0zm350.94 0l0 -1.2c0,-34.1 -27.72,-61.82 -61.82,-61.82l-92.81 0c-34.09,0 -61.66,27.72 -61.66,61.82l0 1.2c0,13.07 4.09,25.17 11,35.08 2.29,3.54 5.01,6.64 8.01,9.48 11,10.78 25.98,17.26 42.65,17.26l82.19 0c17.43,0 31.7,14.16 31.7,31.54 0,17.37 -14.27,31.54 -31.7,31.54l-71.57 0c-17.37,0 -31.54,-14.16 -31.54,-31.54l-40.74 0c0,39.93 32.35,72.28 72.28,72.28l71.57 0c39.98,0 72.44,-32.35 72.44,-72.28 0,-17.27 -6.1,-33.17 -16.29,-45.65 -0.81,-1.09 -1.63,-2.18 -2.72,-3.16 -13.18,-14.49 -32.19,-23.64 -53.43,-23.64l-82.19 0c-11.55,0 -20.91,-9.37 -20.91,-20.92l0 -1.2c0,-11.55 9.37,-20.92 20.91,-20.92l92.81 0c11.54,0 21.08,9.37 21.08,20.92l0 1.2 40.74 0z"/>
  <path class="fil3" d="M8116.66 8856.12l0 40.8 93.96 0 0 187.86 40.8 0 0 -187.86 93.9 0 0 -40.8 -228.65 0zm515.38 122.93c0,0 0.06,0 0.06,0 6.26,-0.71 12.26,-2.45 17.81,-5.07 21.3,-9.64 36.11,-31.21 36.11,-56.21 0,-17 -6.92,-32.46 -18.03,-43.74 -11.17,-11.17 -26.53,-18.09 -43.63,-18.09l-144.34 0 0 228.76 40.74 0 0 -105.12 40.8 0c14.76,0 27.67,7.84 34.75,19.56l0.98 1.8 21.84 42.87 20.92 40.91 45.81 0 -20.81 -40.91 -33.01 -64.76zm-111.22 -40.2l0 -42.16 103.54 0c7.19,0 11.93,3.43 14.65,5.99 2.34,2.45 6.26,7.62 6.26,15.09 0,8.28 -4.74,15.74 -12.37,19.17 -2.72,1.36 -5.56,1.91 -8.55,1.91l-103.54 0zm498.98 105.01l-95.81 -187.91 -95.75 187.91 -20.81 40.85 45.81 0 20.92 -40.85 49.83 -97.99 49.89 97.99 20.91 40.85 45.75 0 -20.75 -40.85zm183.3 40.8l0 -228.65 -40.8 0 0 228.65 40.8 0zm322.57 -228.71l0 145.65 -147.01 -113.29 -40.91 -31.54 0 227.94 40.91 0 0 -144.83 147.01 113.35 40.85 31.48 0 -228.76 -40.85 0zm216.25 228.71l0 -228.65 -40.8 0 0 228.65 40.8 0zm322.57 -228.71l0 145.65 -147.01 -113.29 -40.91 -31.54 0 227.94 40.91 0 0 -144.83 147.01 113.35 40.85 31.48 0 -228.76 -40.85 0zm289.83 40.74l114.38 0 0 -40.74 -114.38 0c-63.18,0 -114.38,51.2 -114.38,114.38 0,63.18 51.2,114.38 114.38,114.38l114.38 0 0 -125.38 -114.38 0 0 40.8 73.59 0 0 43.85 -73.59 0c-40.63,0 -73.64,-33.01 -73.64,-73.64 0,-40.63 33.01,-73.64 73.64,-73.64l0 0z"/>
  <circle class="fil0" cx="5379.32" cy="8970.32" r="36.94"/>
  <circle class="fil0" cx="7923.26" cy="8970.32" r="36.94"/>
  <path class="fil4" d="M2510.93 9021.46c0,69.37 -56.76,126.15 -126.15,126.15l-396.54 0c-91.42,0 -126.15,-81.48 -126.15,-161.15l0 -60.7c127.65,-37.91 266.53,-55.09 434.33,-70.01 71.75,-6.39 143.28,-7.19 214.5,-3.54l0 169.25zm-648.83 -538.07l0 -42.9 0 -686.63 0 -235.9c0,-69.38 56.76,-126.15 126.15,-126.15l523.93 0 94.92 140.48 132.9 196.68 132.89 -196.68 94.93 -140.48 523.92 0c69.39,0 126.15,56.77 126.15,126.15l0 235.9 0 237.24 0 427.21c-9.6,-16.99 -18.28,-34.53 -25.95,-52.52 -59.78,-140.13 -84.25,-260.52 -81.28,-412.79 1.25,-64.11 -33.41,-126.01 -91.6,-154.52 -92.04,-45.08 -194.01,14.18 -210.15,113.32 -19.4,119.19 -93.06,172 -154.17,258.75 -26.17,-19.56 -51.34,-40.2 -74.93,-62.5 -204.4,-193.3 -457.23,-287.86 -736.72,-300.63 -54.35,-2.48 -105.53,9.84 -141.14,55.39 -45.93,58.75 -34.29,133.39 12.18,186.75 26.06,29.92 59.61,56.05 87.74,84.73 33.76,34.43 78.25,81.02 50.45,131.15 -22.13,39.93 -83.04,75.03 -121.85,95.65 -85.68,45.51 -179.31,82.61 -268.39,122.28zm1744.95 575.72c-16.39,49.97 -52.45,88.5 -115.31,88.5l-396.54 0c-69.39,0 -126.15,-56.77 -126.15,-126.15l0 -93.14c88.24,22.95 175.59,49.38 261.82,77.06 125.42,40.26 252.18,60.75 376.18,53.73z"/>
  <path class="fil5" d="M1288.89 9127.24c-34.1,41.57 -89.22,16.68 -54.16,-34.65 411.01,-513.84 999.83,-524.37 1132.4,-763.5 131.39,-237.01 -278.82,-397.33 -130.02,-390.54 293.02,13.39 502.36,122.88 652.52,264.88 108.55,102.65 232.89,164.61 349.32,246.92 41.96,-98.89 -154.35,-82.42 -87.81,-187.89 47.1,-74.67 159.83,-160.74 187.31,-329.57 5.7,-35.02 41.61,-14.91 40.97,17.55 -3.21,164.4 20.91,300.72 91.78,466.85 70.87,166.12 217.45,316.09 418.69,362.25 41.21,9.45 60.77,22.77 15.52,51.72 -147.85,92.29 -351.35,142.07 -634.42,49.14 -337.06,-106.15 -654.44,-184.93 -986.2,-155.41 -331.76,29.52 -638.63,58.21 -995.9,402.24z"/>
 </g>
</svg>
